<?xml version="1.0" encoding="UTF-8"?>
<!-- Generated by jsxcad -->
<!DOCTYPE svg PUBLIC "-//W3C//DTD SVG 1.1 Tiny//EN" "http://www.w3.org/Graphics/SVG/1.1/DTD/svg11-tiny.dtd">
<svg baseProfile="tiny" height="480.55413198930773mm" width="230.9715536105035mm" viewBox="50.6695842450765 -325.00144012282396 230.9715536105035 480.55413198930773" version="1.1" stroke="black" stroke-width=".1" fill="none" xmlns="http://www.w3.org/2000/svg">
<path fill="#c4d3ac" stroke="#c4d3ac" d="M275.9505470459518 305.53716658507693 L275.09846827133475 306.0350544100607 L275.09846827133475 182.6447136711403 L275.9505470459518 182.14682584615656 z"/>
<path fill="#c4d3ac" stroke="#c4d3ac" d="M66.5851203501094 -18.67273148962137 L65.73304157549234 -18.174843664637624 L275.09846827133475 306.0350544100607 L275.95054704595185 305.53716658507693 z"/>
<path fill="#c4d3ac" stroke="#c4d3ac" d="M66.58512035010939 -142.0630722285418 L65.73304157549234 -141.56518440355805 L65.73304157549232 -18.174843664637663 L66.58512035010938 -18.672731489621405 z"/>
<path fill="#c4d3ac" stroke="#c4d3ac" d="M275.95054704595185 182.14682584615656 L275.09846827133475 182.6447136711403 L65.73304157549234 -141.56518440355802 L66.5851203501094 -142.06307222854178 z"/>
<path fill="#c4d3ac" stroke="#c4d3ac" d="M275.95054704595185 305.53716658507693 L275.95054704595185 182.14682584615653 L66.58512035010942 -142.06307222854176 L66.58512035010942 -18.67273148962137 z"/>
<path fill="#c4d3ac" stroke="#c4d3ac" d="M275.09846827133475 306.0350544100607 L65.73304157549234 -18.174843664637628 L65.73304157549236 -141.56518440355805 L275.09846827133475 182.6447136711403 z"/>
<path fill="#e2c66c" stroke="#e2c66c" d="M281.6411378555798 320.02256187298633 L273.1203501094091 325.0014401228237 L273.1203501094091 193.89920308772082 L281.6411378555798 188.92032483788338 z"/>
<path fill="#e2c66c" stroke="#e2c66c" d="M59.19037199124726 -24.450454831380686 L50.669584245076585 -19.471576581543253 L273.1203501094092 325.0014401228237 L281.6411378555798 320.0225618729863 z"/>
<path fill="#e2c66c" stroke="#e2c66c" d="M59.190371991247254 -155.55269186648363 L50.66958424507658 -150.57381361664622 L50.66958424507658 -19.47157658154328 L59.19037199124725 -24.450454831380743 z"/>
<path fill="#e2c66c" stroke="#e2c66c" d="M281.6411378555798 188.92032483788336 L273.1203501094092 193.8992030877208 L50.669584245076585 -150.57381361664616 L59.19037199124726 -155.5526918664836 z"/>
<path fill="#e2c66c" stroke="#e2c66c" d="M281.64113785557987 320.0225618729863 L281.6411378555798 188.92032483788336 L59.190371991247275 -155.5526918664836 L59.19037199124727 -24.450454831380686 z"/>
<path fill="#e2c66c" stroke="#e2c66c" d="M273.1203501094092 325.00144012282374 L50.66958424507661 -19.471576581543257 L50.669584245076614 -150.57381361664616 L273.1203501094092 193.8992030877208 z"/>
</svg>