<?xml version="1.0" encoding="UTF-8"?>
<!-- Generated by jsxcad -->
<!DOCTYPE svg PUBLIC "-//W3C//DTD SVG 1.1 Tiny//EN" "http://www.w3.org/Graphics/SVG/1.1/DTD/svg11-tiny.dtd">
<svg baseProfile="tiny" height="415.5173983962291mm" width="425.11041503523904mm" viewBox="-209.10415035238853 -234.6570153895107 425.11041503523904 415.5173983962291" version="1.1" stroke="black" stroke-width=".1" fill="none" xmlns="http://www.w3.org/2000/svg">
<path fill="#3c3c3c" stroke="#3c3c3c" d="M203.50822239624117 -166.9162870569156 L203.50822239624117 219.97157823353714 L203.52592012529365 219.71767682472847 L203.52592012529365 -167.1701884657243 z"/>
<path fill="#3c3c3c" stroke="#3c3c3c" d="M-196.4291307752545 -168.71395993883175 L203.50822239624117 -166.9162870569156 L203.52592012529365 -167.1701884657243 L-196.41143304620203 -168.96786134764045 z"/>
<path fill="#3c3c3c" stroke="#3c3c3c" d="M-196.4291307752545 218.173905351621 L-196.4291307752545 -168.71395993883175 L-196.41143304620203 -168.96786134764045 L-196.41143304620203 217.9200039428123 z"/>
<path fill="#3c3c3c" stroke="#3c3c3c" d="M203.50822239624117 219.97157823353714 L-196.4291307752545 218.173905351621 L-196.41143304620203 217.9200039428123 L203.52592012529365 219.71767682472847 z"/>
<path fill="#3c3c3c" stroke="#3c3c3c" d="M-196.41143304620203 -168.96786134764045 L203.52592012529365 -167.1701884657243 L203.52592012529365 219.71767682472847 L-196.41143304620203 217.9200039428123 z"/>
<path fill="#3c3c3c" stroke="#3c3c3c" d="M203.50822239624117 -166.9162870569156 L-196.4291307752545 -168.71395993883175 L-196.4291307752545 218.173905351621 L203.50822239624117 219.97157823353714 z"/>
<path fill="#bababa" stroke="#bababa" d="M215.82928739232574 -176.41134148159546 L215.82928739232574 234.6570153895106 L216.00626468285043 232.11800130142367 L216.00626468285043 -178.95035556968236 z"/>
<path fill="#bababa" stroke="#bababa" d="M-209.1041503523884 -178.32136891863138 L215.82928739232574 -176.41134148159546 L216.00626468285043 -178.95035556968236 L-208.92717306186373 -180.86038300671828 z"/>
<path fill="#bababa" stroke="#bababa" d="M-209.1041503523884 232.74698795247465 L-209.1041503523884 -178.32136891863138 L-208.92717306186373 -180.86038300671828 L-208.92717306186373 230.20797386438775 z"/>
<path fill="#bababa" stroke="#bababa" d="M215.82928739232574 234.6570153895106 L-209.1041503523884 232.74698795247465 L-208.92717306186373 230.20797386438775 L216.00626468285043 232.11800130142367 z"/>
<path fill="#bababa" stroke="#bababa" d="M-208.92717306186373 -180.86038300671828 L216.00626468285043 -178.95035556968236 L216.00626468285043 232.11800130142367 L-208.92717306186373 230.20797386438775 z"/>
<path fill="#bababa" stroke="#bababa" d="M215.82928739232574 -176.41134148159546 L-209.1041503523884 -178.32136891863138 L-209.1041503523884 232.74698795247465 L215.82928739232574 234.6570153895106 z"/>
</svg>