<?xml version="1.0" encoding="UTF-8"?>
<!-- Generated by jsxcad -->
<!DOCTYPE svg PUBLIC "-//W3C//DTD SVG 1.1 Tiny//EN" "http://www.w3.org/Graphics/SVG/1.1/DTD/svg11-tiny.dtd">
<svg baseProfile="tiny" height="425.08998751193735mm" width="380.06723828111484mm" viewBox="0 0 380.06723828111484 425.08998751193735" version="1.1" stroke="black" stroke-width=".1" fill="none" xmlns="http://www.w3.org/2000/svg">
<path fill="#000000" stroke="#000000" d="M111.79978852886046 410.10615003713565 L109.47161897827667 10.13553002579113 L460.3345606648335 10.135529983217756 L462.66273021541724 410.10614999456226 z"/>
<path fill="#000000" stroke="#000000" d="M109.47162001272477 10.135532186065298 L109.95178000870558 10.123411495584689 L460.8147300086146 10.123411479958047 L460.3345600129726 10.13553222863867 z"/>
<path fill="#000000" stroke="#000000" d="M463.1428979762524 410.09403 L462.6627309238574 410.10615 L460.33455877771604 10.13553 L460.81472583011106 10.12341 z"/>
<path fill="#000000" stroke="#000000" d="M112.27994998723412 410.09402780687293 L111.7997899912533 410.10614849735356 L462.6627299915011 410.1061485399269 L463.14289998714315 410.0940277912463 z"/>
<path fill="#000000" stroke="#000000" d="M111.79978844822546 410.10615 L112.27995319467087 410.09403 L109.95178104852951 10.12341 L109.4716163020841 10.13553 z"/>
<path fill="#000000" stroke="#000000" d="M109.95178200620731 10.12340994935776 L112.2799515567911 410.09402996070224 L463.142900937737 410.09402997632884 L460.8147313871532 10.123409964984402 z"/>
<path fill="#c0c0c0" stroke="#c0c0c0" d="M96.10640144986886 422.7264399634013 L93.63271943611932 -2.2423399857660864 L466.4245894604915 -2.2423399863813085 L468.89827916863015 422.7264400209861 z"/>
<path fill="#c0c0c0" stroke="#c0c0c0" d="M473.69995288299054 422.60523 L468.8982766404798 422.72644 L466.42459394270355 -2.24234 L471.2262724911639 -2.36355 z"/>
<path fill="#c0c0c0" stroke="#c0c0c0" d="M93.63271998897926 -2.242341893319964 L98.4343900027595 -2.3635495259264534 L471.2262700024243 -2.363549583511247 L466.42458998898286 -2.2423418927047423 z"/>
<path fill="#c0c0c0" stroke="#c0c0c0" d="M100.90808000180157 422.60523030950344 L96.10639998836008 422.72643800030994 L468.89827998802485 422.72643794272517 L473.6999500018051 422.60523031011866 z"/>
<path fill="#c0c0c0" stroke="#c0c0c0" d="M96.10639618631714 422.72644 L100.90807473477753 422.60523 L98.43439203700126 -2.36355 L93.6327157944905 -2.24234 z"/>
<path fill="#c0c0c0" stroke="#c0c0c0" d="M98.43439088339694 -2.3635500222993904 L100.90808059153565 422.605229985068 L473.6999506159078 422.60522998445276 L471.22626860215826 -2.363549964714596 z"/>
</svg>