<?xml version="1.0" encoding="UTF-8"?>
<!-- Generated by jsxcad -->
<!DOCTYPE svg PUBLIC "-//W3C//DTD SVG 1.1 Tiny//EN" "http://www.w3.org/Graphics/SVG/1.1/DTD/svg11-tiny.dtd">
<svg baseProfile="tiny" height="526.8834825705746mm" width="118.03372681281633mm" viewBox="129.53794266441815 -404.54808180452704 118.03372681281633 526.8834825705746" version="1.1" stroke="black" stroke-width=".1" fill="none" xmlns="http://www.w3.org/2000/svg">
<path fill="#c4d3ac" stroke="#c4d3ac" d="M245.35143338954467 386.46250704948255 L244.38448566610452 386.7043368821774 L244.38448566610452 259.92926822943554 L245.35143338954467 259.6874383967407 z"/>
<path fill="#c4d3ac" stroke="#c4d3ac" d="M143.36155143338954 19.623284649400446 L142.3946037099494 19.865114482095304 L244.38448566610455 386.70433688217736 L245.35143338954467 386.46250704948255 z"/>
<path fill="#c4d3ac" stroke="#c4d3ac" d="M143.3615514333895 -107.15178400334153 L142.3946037099494 -106.90995417064667 L142.3946037099494 19.86511448209529 L143.3615514333895 19.623284649400436 z"/>
<path fill="#c4d3ac" stroke="#c4d3ac" d="M245.35143338954467 259.6874383967406 L244.38448566610455 259.9292682294355 L142.3946037099494 -106.90995417064663 L143.36155143338954 -107.15178400334148 z"/>
<path fill="#c4d3ac" stroke="#c4d3ac" d="M245.35143338954467 386.46250704948255 L245.35143338954467 259.6874383967406 L143.36155143338954 -107.15178400334148 L143.36155143338954 19.623284649400446 z"/>
<path fill="#c4d3ac" stroke="#c4d3ac" d="M244.38448566610452 386.7043368821774 L142.3946037099494 19.865114482095304 L142.3946037099494 -106.90995417064661 L244.38448566610455 259.9292682294355 z"/>
<path fill="#e2c66c" stroke="#e2c66c" d="M247.5716694772344 402.12978347757814 L237.90219224283302 404.54808180452676 L237.90219224283302 269.8495713609884 L247.5716694772344 267.43127303403986 z"/>
<path fill="#e2c66c" stroke="#e2c66c" d="M139.20741989881955 12.363109677490923 L129.5379426644182 14.781408004439493 L237.90219224283302 404.54808180452676 L247.5716694772344 402.12978347757814 z"/>
<path fill="#e2c66c" stroke="#e2c66c" d="M139.20741989881955 -122.3354007660474 L129.53794266441818 -119.91710243909883 L129.53794266441818 14.781408004439449 L139.20741989881955 12.363109677490877 z"/>
<path fill="#e2c66c" stroke="#e2c66c" d="M247.5716694772344 267.43127303403986 L237.90219224283302 269.8495713609884 L129.5379426644182 -119.91710243909881 L139.20741989881955 -122.33540076604739 z"/>
<path fill="#e2c66c" stroke="#e2c66c" d="M247.5716694772344 402.1297834775782 L247.5716694772344 267.43127303403986 L139.20741989881955 -122.33540076604737 L139.20741989881955 12.363109677490922 z"/>
<path fill="#e2c66c" stroke="#e2c66c" d="M237.90219224283305 404.54808180452676 L129.5379426644182 14.781408004439495 L129.5379426644182 -119.91710243909881 L237.90219224283305 269.8495713609884 z"/>
</svg>