<?xml version="1.0" encoding="UTF-8"?>
<!-- Generated by jsxcad -->
<!DOCTYPE svg PUBLIC "-//W3C//DTD SVG 1.1 Tiny//EN" "http://www.w3.org/Graphics/SVG/1.1/DTD/svg11-tiny.dtd">
<svg baseProfile="tiny" height="429.1098016825318mm" width="392.4604569420038mm" viewBox="-117.06502636203878 -149.19374608583956 392.4604569420038 429.1098016825318" version="1.1" stroke="black" stroke-width=".1" fill="none" xmlns="http://www.w3.org/2000/svg">
<path fill="#c4d3ac" stroke="#c4d3ac" d="M264.37785588752195 -153.38613401372072 L263.9718804920914 -152.74038450215443 L263.9718804920914 130.30530077703332 L264.37785588752195 129.65955126546706 z"/>
<path fill="#c4d3ac" stroke="#c4d3ac" d="M-101.17574692442882 -268.1308549151151 L-101.5817223198594 -267.4851054035488 L263.9718804920914 -152.7403845021545 L264.37785588752195 -153.38613401372078 z"/>
<path fill="#c4d3ac" stroke="#c4d3ac" d="M-101.17574692442881 14.914830364072687 L-101.5817223198594 15.560579875638977 L-101.5817223198594 -267.4851054035488 L-101.17574692442882 -268.1308549151151 z"/>
<path fill="#c4d3ac" stroke="#c4d3ac" d="M264.37785588752195 129.65955126546703 L263.9718804920914 130.30530077703332 L-101.5817223198594 15.560579875638977 L-101.17574692442882 14.914830364072685 z"/>
<path fill="#c4d3ac" stroke="#c4d3ac" d="M264.37785588752195 -153.3861340137207 L264.37785588752195 129.65955126546706 L-101.17574692442881 14.914830364072687 L-101.17574692442881 -268.13085491511504 z"/>
<path fill="#c4d3ac" stroke="#c4d3ac" d="M263.9718804920914 -152.74038450215443 L-101.5817223198594 -267.4851054035488 L-101.5817223198594 15.560579875638975 L263.9718804920914 130.30530077703335 z"/>
<path fill="#e2c66c" stroke="#e2c66c" d="M275.39543057996485 -157.99978963896046 L271.335676625659 -151.54229452329758 L271.335676625659 149.19374608583942 L275.39543057996485 142.7362509701765 z"/>
<path fill="#e2c66c" stroke="#e2c66c" d="M-113.00527240773286 -279.916055596692 L-117.06502636203865 -273.45856048102917 L271.335676625659 -151.5422945232976 L275.3954305799648 -157.99978963896052 z"/>
<path fill="#e2c66c" stroke="#e2c66c" d="M-113.00527240773286 20.81998501244502 L-117.06502636203865 27.277480128107907 L-117.06502636203865 -273.4585604810291 L-113.00527240773286 -279.91605559669193 z"/>
<path fill="#e2c66c" stroke="#e2c66c" d="M275.3954305799648 142.7362509701765 L271.335676625659 149.19374608583942 L-117.06502636203865 27.277480128107904 L-113.00527240773286 20.81998501244502 z"/>
<path fill="#e2c66c" stroke="#e2c66c" d="M275.3954305799648 -157.9997896389605 L275.3954305799648 142.7362509701765 L-113.00527240773283 20.819985012445024 L-113.00527240773283 -279.916055596692 z"/>
<path fill="#e2c66c" stroke="#e2c66c" d="M271.335676625659 -151.54229452329758 L-117.06502636203864 -273.45856048102905 L-117.06502636203864 27.277480128107907 L271.335676625659 149.1937460858394 z"/>
</svg>